<svg width="343" height="826" viewBox="0 0 343 826" fill="none" xmlns="http://www.w3.org/2000/svg">
<g opacity="0.5">
<path opacity="0.2" d="M172.434 41.6325C100.955 41.3345 42.7889 104.458 42.5164 182.623C42.2439 260.788 99.9681 324.395 171.447 324.693C242.926 324.991 301.092 261.867 301.365 183.702C301.637 105.537 243.913 41.9306 172.434 41.6325Z" stroke="white" stroke-width="83.0921"/>
<g opacity="0.3">
<path d="M220.115 819.969L220.517 778.329C220.544 775.488 218.461 773.161 215.863 773.131L23.2068 770.909C20.6092 770.879 18.4813 773.158 18.4539 775.998L18.0523 817.638C18.0249 820.479 20.1084 822.806 22.7059 822.835L215.362 825.058C217.96 825.088 220.088 822.809 220.115 819.969Z" fill="white"/>
<path d="M180.342 753.213L180.743 711.573C180.771 708.732 178.687 706.405 176.09 706.375L23.8461 704.619C21.2486 704.589 19.1206 706.868 19.0932 709.708L18.6916 751.348C18.6642 754.189 20.7477 756.516 23.3453 756.546L175.589 758.302C178.186 758.332 180.314 756.053 180.342 753.213Z" fill="white"/>
<path d="M100.154 685.994L100.556 644.354C100.583 641.514 98.4998 639.187 95.9022 639.157L24.4837 638.333C21.8862 638.303 19.7583 640.581 19.7309 643.422L19.3293 685.062C19.3019 687.902 21.3853 690.229 23.9829 690.259L95.4014 691.083C97.9989 691.113 100.127 688.835 100.154 685.994Z" fill="white"/>
<path d="M121.006 619.937L121.407 578.297C121.435 575.457 119.351 573.13 116.754 573.1L25.129 572.043C22.5315 572.013 20.4036 574.292 20.3762 577.132L19.9745 618.772C19.9471 621.613 22.0307 623.94 24.6282 623.97L116.253 625.026C118.851 625.056 120.978 622.778 121.006 619.937Z" fill="white"/>
</g>
</g>
</svg>
