<svg width="1440" height="594" viewBox="0 0 1440 594" fill="none" xmlns="http://www.w3.org/2000/svg">
<mask id="mask0_123_1541" style="mask-type:luminance" maskUnits="userSpaceOnUse" x="-31" y="0" width="1502" height="594">
<path d="M1471 0H-31V594H1471V0Z" fill="white"/>
</mask>
<g mask="url(#mask0_123_1541)">
<g opacity="0.5">
<path opacity="0.2" d="M1316.43 767.91C1387.91 767.91 1445.85 704.544 1445.85 626.379C1445.85 548.213 1387.91 484.848 1316.43 484.848C1244.95 484.848 1187 548.213 1187 626.379C1187 704.544 1244.95 767.91 1316.43 767.91Z" stroke="white" stroke-width="83.0921"/>
<g opacity="0.3">
<path d="M1266.03 -10.2261L1265.78 31.4153C1265.76 34.2558 1267.85 36.5741 1270.45 36.5932L1463.11 38.0121C1465.71 38.0312 1467.83 35.7439 1467.85 32.9034L1468.1 -8.73797C1468.12 -11.5786 1466.03 -13.8968 1463.43 -13.916L1270.77 -15.3348C1268.17 -15.3539 1266.05 -13.0667 1266.03 -10.2261Z" fill="white"/>
<path d="M1306.04 56.3618L1305.78 98.0031C1305.76 100.844 1307.86 103.162 1310.45 103.181L1462.7 104.302C1465.3 104.321 1467.42 102.034 1467.44 99.1936L1467.69 57.5523C1467.71 54.7117 1465.62 52.3934 1463.02 52.3743L1310.77 51.2531C1308.18 51.234 1306.06 53.5212 1306.04 56.3618Z" fill="white"/>
<path d="M1386.46 123.249L1386.21 164.89C1386.19 167.73 1388.28 170.049 1390.88 170.068L1462.3 170.594C1464.9 170.613 1467.02 168.326 1467.04 165.485L1467.29 123.844C1467.31 121.003 1465.22 118.685 1462.62 118.666L1391.2 118.14C1388.6 118.121 1386.48 120.408 1386.46 123.249Z" fill="white"/>
<path d="M1365.84 189.389L1365.59 231.03C1365.57 233.871 1367.66 236.189 1370.26 236.208L1461.89 236.883C1464.48 236.902 1466.6 234.615 1466.62 231.775L1466.88 190.133C1466.89 187.293 1464.8 184.974 1462.21 184.955L1370.58 184.28C1367.98 184.261 1365.86 186.549 1365.84 189.389Z" fill="white"/>
</g>
</g>
<g opacity="0.5">
<path opacity="0.2" d="M124.739 -190.61C53.2597 -190.908 -4.90636 -127.784 -5.1789 -49.6191C-5.45144 28.5458 52.2728 92.1526 123.752 92.4506C195.231 92.7486 253.397 29.625 253.669 -48.5399C253.942 -126.705 196.218 -190.312 124.739 -190.61Z" stroke="white" stroke-width="83.0921"/>
<g opacity="0.3">
<path d="M172.42 587.726L172.821 546.087C172.849 543.246 170.765 540.919 168.168 540.889L-24.4886 538.667C-27.0861 538.637 -29.214 540.915 -29.2414 543.756L-29.643 585.396C-29.6704 588.236 -27.5869 590.563 -24.9894 590.593L167.667 592.815C170.265 592.845 172.392 590.567 172.42 587.726Z" fill="white"/>
<path d="M132.646 520.973L133.048 479.333C133.075 476.492 130.992 474.165 128.394 474.135L-23.8492 472.379C-26.4467 472.349 -28.5747 474.628 -28.6021 477.468L-29.0037 519.108C-29.0311 521.949 -26.9476 524.276 -24.3501 524.306L127.894 526.061C130.491 526.091 132.619 523.813 132.646 520.973Z" fill="white"/>
<path d="M52.4589 453.752L52.8605 412.112C52.8879 409.271 50.8044 406.944 48.2069 406.915L-23.2116 406.091C-25.8091 406.061 -27.937 408.339 -27.9644 411.18L-28.366 452.82C-28.3934 455.66 -26.31 457.987 -23.7124 458.017L47.7061 458.841C50.3036 458.871 52.4315 456.592 52.4589 453.752Z" fill="white"/>
<path d="M73.3105 387.697L73.7121 346.057C73.7395 343.217 71.656 340.89 69.0585 340.86L-22.5663 339.803C-25.1638 339.773 -27.2917 342.051 -27.3191 344.892L-27.7208 386.532C-27.7482 389.372 -25.6647 391.699 -23.0671 391.729L68.5577 392.786C71.1552 392.816 73.2831 390.538 73.3105 387.697Z" fill="white"/>
</g>
</g>
</g>
</svg>
